<svg width="300" height="628" viewBox="0 0 300 628" fill="none" xmlns="http://www.w3.org/2000/svg">
<path d="M11.6775 37.6722C11.8565 26.7557 20.7569 18 31.6748 18H267.325C278.243 18 287.144 26.7558 287.323 37.6722L296.667 607.672C296.85 618.845 287.843 628 276.669 628H22.3306C11.1566 628 2.15009 618.845 2.33324 607.672L11.6775 37.6722Z" fill="black" fill-opacity="0.6"/>
<path d="M0 125.086C0 123.389 1.28326 122.013 2.86624 122.013C4.44922 122.013 5.73248 123.389 5.73248 125.086V200.897C5.73248 202.594 4.44922 203.97 2.86624 203.97C1.28326 203.97 0 202.594 0 200.897V125.086Z" fill="#161616"/>
<path d="M0 223.435C0 221.738 1.28326 220.362 2.86624 220.362C4.44922 220.362 5.73248 221.738 5.73248 223.435V250.071C5.73248 251.769 4.44922 253.145 2.86624 253.145C1.28326 253.145 0 251.769 0 250.071V223.435Z" fill="#161616"/>
<path d="M294.268 117.915C294.268 116.217 295.551 114.841 297.134 114.841C298.717 114.841 300 116.217 300 117.915V144.551C300 146.248 298.717 147.624 297.134 147.624C295.551 147.624 294.268 146.248 294.268 144.551V117.915Z" fill="#161616"/>
<path d="M1.91083 25.6118C1.91083 11.4668 12.6047 0 25.7962 0H274.204C287.395 0 298.089 11.4668 298.089 25.6117V602.388C298.089 616.533 287.395 628 274.204 628H25.7962C12.6047 628 1.91083 616.533 1.91083 602.388V25.6118Z" fill="#161616"/>
<path d="M3.82227 29.6564C3.82227 15.5114 14.5161 4.04465 27.7076 4.04465H272.294C285.485 4.04465 296.179 15.5114 296.179 29.6564V598.343C296.179 612.488 285.485 623.954 272.294 623.954H27.7076C14.5161 623.954 3.82227 612.488 3.82227 598.343V29.6564Z" fill="url(#paint0_linear_0_340)"/>
<path d="M3.82227 598.343C3.82227 612.488 14.5161 623.954 27.7076 623.954H272.294C285.485 623.954 296.179 612.488 296.179 598.343V29.6564C296.179 15.5114 285.485 4.04465 272.294 4.04465H27.7076C14.5161 4.04465 3.82227 15.5114 3.82227 29.6564V598.343Z" fill="url(#paint1_linear_0_340)"/>
<path d="M4 29.7089C4 15.5643 14.675 4.09796 27.8433 4.09796H272.953C286.121 4.09796 296.796 15.5644 296.796 29.7089V598.271C296.796 612.416 286.121 623.882 272.953 623.882H27.8433C14.675 623.882 4 612.416 4 598.271V29.7089Z" fill="url(#paint2_linear_0_340)"/>
<path d="M296.796 29.7089C296.796 15.5643 286.121 4.09796 272.953 4.09796H27.8433C14.675 4.09796 4 15.5644 4 29.7089V598.271C4 612.416 14.675 623.882 27.8433 623.882H272.953C286.121 623.882 296.796 612.416 296.796 598.271V29.7089Z" fill="url(#paint3_linear_0_340)"/>
<defs>
<linearGradient id="paint0_linear_0_340" x1="150.001" y1="-1.01171" x2="150.001" y2="23.2588" gradientUnits="userSpaceOnUse">
<stop/>
<stop offset="1" stop-color="#3A3A3A" stop-opacity="0"/>
</linearGradient>
<linearGradient id="paint1_linear_0_340" x1="150.001" y1="629.011" x2="150.001" y2="604.74" gradientUnits="userSpaceOnUse">
<stop/>
<stop offset="1" stop-color="#3A3A3A" stop-opacity="0"/>
</linearGradient>
<linearGradient id="paint2_linear_0_340" x1="-22.6178" y1="623.882" x2="333.273" y2="623.882" gradientUnits="userSpaceOnUse">
<stop stop-color="#FDFDFD"/>
<stop offset="0.116343" stop-color="white" stop-opacity="0"/>
</linearGradient>
<linearGradient id="paint3_linear_0_340" x1="323.414" y1="623.882" x2="-32.4763" y2="623.882" gradientUnits="userSpaceOnUse">
<stop stop-color="#FDFDFD"/>
<stop offset="0.116343" stop-color="white" stop-opacity="0"/>
</linearGradient>
</defs>
</svg>
